<?xml version="1.0" encoding="UTF-8"?>
<svg version="1.1" xmlns="http://www.w3.org/2000/svg" width="2048" height="2048">
<path d="M0 0 C675.84 0 1351.68 0 2048 0 C2048 506.88 2048 1013.76 2048 1536 C1879.04 1536 1710.08 1536 1536 1536 C1536 1704.96 1536 1873.92 1536 2048 C1198.08 2048 860.16 2048 512 2048 C512 1879.04 512 1710.08 512 1536 C343.04 1536 174.08 1536 0 1536 C0 1029.12 0 522.24 0 0 Z " fill="#FFFFFF" transform="translate(0,0)"/>
<path d="M0 0 C675.84 0 1351.68 0 2048 0 C2048 506.88 2048 1013.76 2048 1536 C1879.04 1536 1710.08 1536 1536 1536 C1536 1704.96 1536 1873.92 1536 2048 C1198.08 2048 860.16 2048 512 2048 C512 1879.04 512 1710.08 512 1536 C343.04 1536 174.08 1536 0 1536 C0 1029.12 0 522.24 0 0 Z M32 32 C32 517.76 32 1003.52 32 1504 C200.96 1504 369.92 1504 544 1504 C544 1672.96 544 1841.92 544 2016 C860.8 2016 1177.6 2016 1504 2016 C1504 1857.6 1504 1699.2 1504 1536 C1345.6 1536 1187.2 1536 1024 1536 C1024 1367.04 1024 1198.08 1024 1024 C1192.96 1024 1361.92 1024 1536 1024 C1536 855.04 1536 686.08 1536 512 C1694.4 512 1852.8 512 2016 512 C2016 353.6 2016 195.2 2016 32 C1361.28 32 706.56 32 32 32 Z " fill="#000000" transform="translate(0,0)"/>
<path d="M0 0 C168.96 0 337.92 0 512 0 C512 168.96 512 337.92 512 512 C343.04 512 174.08 512 0 512 C0 343.04 0 174.08 0 0 Z " fill="#000000" transform="translate(512,512)"/>
<path d="M0 0 C158.4 0 316.8 0 480 0 C480 158.4 480 316.8 480 480 C321.6 480 163.2 480 0 480 C0 321.6 0 163.2 0 0 Z " fill="#FFFFFF" transform="translate(1536,1024)"/>
</svg>
